<svg xmlns="http://www.w3.org/2000/svg" width="1100" height="600" viewBox="0 0 1100 600" role="img" aria-labelledby="vpe-title vpe-desc">
  <title id="vpe-title">Vision patch embedding kernel dataflow</title>
  <desc id="vpe-desc">How im2patch slices an image into a patch grid, each patch is flattened and projected to the model dimension, a 2x2 spatial merge groups neighbouring patches, and tiled 2D position ids are added before the transformer body.</desc>
  <defs>
    <linearGradient id="vpe-bg" x1="0" y1="0" x2="1" y2="1">
      <stop offset="0" stop-color="#07111f"/>
      <stop offset="0.55" stop-color="#0f1b2d"/>
      <stop offset="1" stop-color="#17243a"/>
    </linearGradient>
    <linearGradient id="vpe-proj" x1="0" y1="0" x2="1" y2="1">
      <stop offset="0" stop-color="#0ea5e9" stop-opacity="0.85"/>
      <stop offset="1" stop-color="#0284c7" stop-opacity="0.85"/>
    </linearGradient>
    <filter id="vpe-shadow" x="-20%" y="-20%" width="140%" height="140%">
      <feDropShadow dx="0" dy="10" stdDeviation="10" flood-color="#000000" flood-opacity="0.25"/>
    </filter>
    <marker id="vpe-arrow" markerWidth="10" markerHeight="10" refX="8" refY="5" orient="auto">
      <path d="M 0 0 L 10 5 L 0 10 z" fill="#7dd3fc"/>
    </marker>
    <marker id="vpe-arrow-amber" markerWidth="10" markerHeight="10" refX="8" refY="5" orient="auto">
      <path d="M 0 0 L 10 5 L 0 10 z" fill="#fbbf24"/>
    </marker>
  </defs>

  <rect width="1100" height="600" fill="url(#vpe-bg)"/>
  <g opacity="0.25" stroke="#26364f" stroke-width="1">
    <path d="M0 80H1100M0 160H1100M0 240H1100M0 320H1100M0 400H1100M0 480H1100M0 560H1100"/>
    <path d="M100 0V600M300 0V600M500 0V600M700 0V600M900 0V600"/>
  </g>

  <text x="50" y="54" fill="#e5f2ff" font-family="Inter, Arial, sans-serif" font-size="28" font-weight="700">Vision Patch Embedding: image to encoder tokens</text>
  <text x="50" y="84" fill="#9fb6d8" font-family="JetBrains Mono, Consolas, monospace" font-size="14">src/kernels/vision_kernels.c — pure, bump-allocated, deterministic. No malloc, no OpenMP inside the kernel.</text>

  <!-- 1. im2patch -->
  <g transform="translate(50 120)" filter="url(#vpe-shadow)">
    <rect x="0" y="0" width="230" height="270" rx="12" fill="#0b1220" stroke="#23334f"/>
    <text x="20" y="32" fill="#e5f2ff" font-family="Inter, Arial, sans-serif" font-size="17" font-weight="700">1 · im2patch</text>
    <text x="20" y="54" fill="#9fb6d8" font-family="JetBrains Mono, Consolas, monospace" font-size="12">[C,H,W] &#8594; [N, C·P·P]</text>
    <g transform="translate(35 72)" stroke="#2b6f8c" stroke-width="1.2" fill="#0e2233">
      <rect x="0" y="0" width="40" height="40"/><rect x="40" y="0" width="40" height="40"/><rect x="80" y="0" width="40" height="40"/><rect x="120" y="0" width="40" height="40"/>
      <rect x="0" y="40" width="40" height="40"/><rect x="40" y="40" width="40" height="40"/><rect x="80" y="40" width="40" height="40"/><rect x="120" y="40" width="40" height="40"/>
      <rect x="0" y="80" width="40" height="40"/><rect x="40" y="80" width="40" height="40"/><rect x="80" y="80" width="40" height="40"/><rect x="120" y="80" width="40" height="40"/>
      <rect x="0" y="120" width="40" height="40"/><rect x="40" y="120" width="40" height="40"/><rect x="80" y="120" width="40" height="40"/><rect x="120" y="120" width="40" height="40"/>
    </g>
    <rect x="35" y="72" width="80" height="80" fill="none" stroke="#fbbf24" stroke-width="2.6"/>
    <text x="20" y="258" fill="#9fb6d8" font-family="JetBrains Mono, Consolas, monospace" font-size="12">grid = (H/P) × (W/P)</text>
  </g>

  <line x1="285" y1="255" x2="330" y2="255" stroke="#7dd3fc" stroke-width="2.4" marker-end="url(#vpe-arrow)"/>

  <!-- 2. flatten + project -->
  <g transform="translate(335 120)" filter="url(#vpe-shadow)">
    <rect x="0" y="0" width="250" height="270" rx="12" fill="#0b1220" stroke="#23334f"/>
    <text x="20" y="32" fill="#e5f2ff" font-family="Inter, Arial, sans-serif" font-size="17" font-weight="700">2 · patch embed</text>
    <text x="20" y="54" fill="#9fb6d8" font-family="JetBrains Mono, Consolas, monospace" font-size="12">dual proj + merge + bias</text>
    <g transform="translate(20 72)">
      <rect x="0" y="0" width="120" height="18" rx="3" fill="#0e2233" stroke="#fbbf24" stroke-width="1.6"/>
      <rect x="0" y="24" width="120" height="18" rx="3" fill="#0e2233" stroke="#2b3b55"/>
      <rect x="0" y="48" width="120" height="18" rx="3" fill="#0e2233" stroke="#2b3b55"/>
      <text x="60" y="92" text-anchor="middle" fill="#6b7d99" font-family="JetBrains Mono, Consolas, monospace" font-size="13">&#8942;</text>
      <line x1="128" y1="33" x2="158" y2="33" stroke="#7dd3fc" stroke-width="2" marker-end="url(#vpe-arrow)"/>
      <rect x="160" y="6" width="60" height="54" rx="8" fill="url(#vpe-proj)"/>
      <text x="190" y="30" text-anchor="middle" fill="#04121f" font-family="JetBrains Mono, Consolas, monospace" font-size="12" font-weight="700">GEMM</text>
      <text x="190" y="46" text-anchor="middle" fill="#04121f" font-family="JetBrains Mono, Consolas, monospace" font-size="11">W_patch</text>
    </g>
    <text x="20" y="200" fill="#e5f2ff" font-family="JetBrains Mono, Consolas, monospace" font-size="12">+ add_stream_reorder_2d</text>
    <text x="20" y="222" fill="#e5f2ff" font-family="JetBrains Mono, Consolas, monospace" font-size="12">+ rowwise_bias_add</text>
    <text x="20" y="258" fill="#9fb6d8" font-family="JetBrains Mono, Consolas, monospace" font-size="12">&#8594; [N, d_model]</text>
  </g>

  <line x1="590" y1="255" x2="635" y2="255" stroke="#7dd3fc" stroke-width="2.4" marker-end="url(#vpe-arrow)"/>

  <!-- 3. spatial merge 2x2 -->
  <g transform="translate(640 120)" filter="url(#vpe-shadow)">
    <rect x="0" y="0" width="230" height="270" rx="12" fill="#0b1220" stroke="#23334f"/>
    <text x="20" y="32" fill="#e5f2ff" font-family="Inter, Arial, sans-serif" font-size="17" font-weight="700">3 · spatial_merge_2x2</text>
    <text x="20" y="54" fill="#9fb6d8" font-family="JetBrains Mono, Consolas, monospace" font-size="12">tile_order_index_2d</text>
    <g transform="translate(40 80)" stroke="#2b3b55" stroke-width="1.2" fill="#0e2233">
      <rect x="0" y="0" width="34" height="34"/><rect x="34" y="0" width="34" height="34"/>
      <rect x="0" y="34" width="34" height="34"/><rect x="34" y="34" width="34" height="34"/>
    </g>
    <rect x="40" y="80" width="68" height="68" fill="none" stroke="#0ea5e9" stroke-width="2.6"/>
    <line x1="120" y1="114" x2="150" y2="114" stroke="#7dd3fc" stroke-width="2" marker-end="url(#vpe-arrow)"/>
    <rect x="152" y="96" width="56" height="36" rx="7" fill="#0e2233" stroke="#0ea5e9" stroke-width="1.6"/>
    <text x="180" y="119" text-anchor="middle" fill="#7dd3fc" font-family="JetBrains Mono, Consolas, monospace" font-size="11">1 row</text>
    <text x="20" y="190" fill="#cbd5e1" font-family="Inter, Arial, sans-serif" font-size="13">4 neighbouring patches</text>
    <text x="20" y="210" fill="#cbd5e1" font-family="Inter, Arial, sans-serif" font-size="13">concat &#8594; 1 merged token</text>
    <text x="20" y="258" fill="#9fb6d8" font-family="JetBrains Mono, Consolas, monospace" font-size="12">&#8594; [N/4, 4·d]</text>
  </g>

  <!-- 4. positions -->
  <g transform="translate(50 415)" filter="url(#vpe-shadow)">
    <rect x="0" y="0" width="820" height="100" rx="12" fill="#111c2f" stroke="#2b3b55"/>
    <text x="22" y="34" fill="#e5f2ff" font-family="Inter, Arial, sans-serif" font-size="17" font-weight="700">4 · tiled 2D position + RoPE</text>
    <text x="22" y="60" fill="#9fb6d8" font-family="JetBrains Mono, Consolas, monospace" font-size="13">position_embeddings_add_tiled_2d &#183; vision_position_ids_2d_merge &#183; multi-section RoPE</text>
    <text x="22" y="82" fill="#7dd3fc" font-family="JetBrains Mono, Consolas, monospace" font-size="13">Each token learns where it sits on the 2D grid before attention mixes patches.</text>
    <line x1="700" y1="50" x2="788" y2="50" stroke="#fbbf24" stroke-width="2.4" marker-end="url(#vpe-arrow-amber)"/>
    <text x="724" y="34" fill="#fbbf24" font-family="Inter, Arial, sans-serif" font-size="13" font-weight="700">to body</text>
  </g>

  <!-- gemma4 note -->
  <g transform="translate(50 535)">
    <rect x="0" y="0" width="1000" height="44" rx="10" fill="#08111f" stroke="#24344f"/>
    <text x="22" y="28" fill="#9fb6d8" font-family="Inter, Arial, sans-serif" font-size="14">
      Gemma4 vision swaps step 3/4 for spatial_average_pool_contiguous + position_embeddings_add_gemma4v_xy; both lanes reuse the same im2patch frontend and bump-allocated memory plan.
    </text>
  </g>
</svg>
