<svg xmlns="http://www.w3.org/2000/svg" width="1180" height="620" viewBox="0 0 1180 620" role="img" aria-labelledby="title desc">
  <title id="title">Nemotron-style MoE router and ReLU2 expert flow</title>
  <desc id="desc">Diagram showing hidden rows flowing through router logits, group-limited top-k expert selection, routed ReLU2 experts, and weighted output accumulation.</desc>
  <defs>
    <linearGradient id="bg" x1="0" y1="0" x2="1" y2="1">
      <stop offset="0" stop-color="#07111f"/>
      <stop offset="0.55" stop-color="#0d1b2a"/>
      <stop offset="1" stop-color="#13243a"/>
    </linearGradient>
    <linearGradient id="router" x1="0" y1="0" x2="1" y2="1">
      <stop offset="0" stop-color="#12304f"/>
      <stop offset="1" stop-color="#0f5f83"/>
    </linearGradient>
    <linearGradient id="expert" x1="0" y1="0" x2="1" y2="1">
      <stop offset="0" stop-color="#2b1b08"/>
      <stop offset="1" stop-color="#8a4b06"/>
    </linearGradient>
    <linearGradient id="accum" x1="0" y1="0" x2="1" y2="1">
      <stop offset="0" stop-color="#0e3329"/>
      <stop offset="1" stop-color="#15735d"/>
    </linearGradient>
    <filter id="shadow" x="-15%" y="-20%" width="130%" height="145%">
      <feDropShadow dx="0" dy="10" stdDeviation="10" flood-color="#000" flood-opacity="0.28"/>
    </filter>
    <marker id="arrow" markerWidth="10" markerHeight="10" refX="8" refY="5" orient="auto">
      <path d="M0 0 L10 5 L0 10z" fill="#8bd3ff"/>
    </marker>
  </defs>

  <rect width="1180" height="620" fill="url(#bg)"/>
  <g opacity="0.22" stroke="#26364f" stroke-width="1">
    <path d="M0 90H1180M0 180H1180M0 270H1180M0 360H1180M0 450H1180M0 540H1180"/>
    <path d="M100 0V620M200 0V620M300 0V620M400 0V620M500 0V620M600 0V620M700 0V620M800 0V620M900 0V620M1000 0V620M1100 0V620"/>
  </g>

  <text x="54" y="58" fill="#e5f2ff" font-family="Inter, Arial, sans-serif" font-size="30" font-weight="700">MoE routing is sparse control flow over dense expert kernels</text>
  <text x="54" y="88" fill="#9fb6d8" font-family="Inter, Arial, sans-serif" font-size="15">Nemotron-style layers score experts, constrain selection by group, run only top-k experts, then accumulate weighted outputs.</text>

  <g transform="translate(55 150)" filter="url(#shadow)">
    <rect x="0" y="0" width="150" height="95" rx="10" fill="#101b2d" stroke="#2d405f"/>
    <text x="28" y="35" fill="#e5f2ff" font-family="JetBrains Mono, Consolas, monospace" font-size="15">hidden</text>
    <text x="22" y="60" fill="#9fb6d8" font-family="JetBrains Mono, Consolas, monospace" font-size="12">[rows, hidden]</text>
  </g>

  <g transform="translate(250 122)" filter="url(#shadow)">
    <rect x="0" y="0" width="205" height="150" rx="12" fill="url(#router)" stroke="#38bdf8"/>
    <text x="26" y="34" fill="#e5f2ff" font-family="Inter, Arial, sans-serif" font-size="18" font-weight="700">Router</text>
    <text x="26" y="60" fill="#dff5ff" font-family="JetBrains Mono, Consolas, monospace" font-size="13">scores + bias</text>
    <text x="26" y="84" fill="#dff5ff" font-family="JetBrains Mono, Consolas, monospace" font-size="13">sigmoid(scores)</text>
    <line x1="24" y1="100" x2="180" y2="100" stroke="#8bd3ff" opacity="0.5"/>
    <text x="26" y="126" fill="#b8e7ff" font-family="JetBrains Mono, Consolas, monospace" font-size="12">nemotron_group_limited</text>
  </g>

  <g transform="translate(505 115)" filter="url(#shadow)">
    <rect x="0" y="0" width="220" height="165" rx="12" fill="#111827" stroke="#50627f"/>
    <text x="24" y="34" fill="#e5f2ff" font-family="Inter, Arial, sans-serif" font-size="18" font-weight="700">Group-limited top-k</text>
    <text x="24" y="61" fill="#9fb6d8" font-family="JetBrains Mono, Consolas, monospace" font-size="13">split experts into groups</text>
    <text x="24" y="85" fill="#9fb6d8" font-family="JetBrains Mono, Consolas, monospace" font-size="13">choose top groups</text>
    <text x="24" y="109" fill="#9fb6d8" font-family="JetBrains Mono, Consolas, monospace" font-size="13">choose top-k experts</text>
    <rect x="24" y="126" width="76" height="24" rx="6" fill="#12304f" stroke="#38bdf8"/>
    <text x="42" y="143" fill="#dff5ff" font-family="JetBrains Mono, Consolas, monospace" font-size="12">idx</text>
    <rect x="112" y="126" width="84" height="24" rx="6" fill="#1d2a3d" stroke="#8bd3ff"/>
    <text x="127" y="143" fill="#dff5ff" font-family="JetBrains Mono, Consolas, monospace" font-size="12">weight</text>
  </g>

  <g transform="translate(782 84)" filter="url(#shadow)">
    <rect x="0" y="0" width="170" height="88" rx="10" fill="url(#expert)" stroke="#f59e0b"/>
    <text x="28" y="32" fill="#fff7ed" font-family="Inter, Arial, sans-serif" font-size="16" font-weight="700">Expert e0</text>
    <text x="22" y="58" fill="#fde68a" font-family="JetBrains Mono, Consolas, monospace" font-size="12">up -> relu2 -> down</text>

    <rect x="0" y="115" width="170" height="88" rx="10" fill="url(#expert)" stroke="#f59e0b"/>
    <text x="28" y="147" fill="#fff7ed" font-family="Inter, Arial, sans-serif" font-size="16" font-weight="700">Expert e7</text>
    <text x="22" y="173" fill="#fde68a" font-family="JetBrains Mono, Consolas, monospace" font-size="12">up -> relu2 -> down</text>

    <rect x="0" y="230" width="170" height="88" rx="10" fill="#24180a" stroke="#9a6b1a" stroke-dasharray="5 4"/>
    <text x="32" y="262" fill="#b6a37a" font-family="Inter, Arial, sans-serif" font-size="16" font-weight="700">Expert eN</text>
    <text x="22" y="288" fill="#95856b" font-family="JetBrains Mono, Consolas, monospace" font-size="12">not selected</text>
  </g>

  <g transform="translate(1000 164)" filter="url(#shadow)">
    <rect x="0" y="0" width="130" height="125" rx="12" fill="url(#accum)" stroke="#34d399"/>
    <text x="25" y="35" fill="#ecfdf5" font-family="Inter, Arial, sans-serif" font-size="17" font-weight="700">Accumulate</text>
    <text x="20" y="65" fill="#d1fae5" font-family="JetBrains Mono, Consolas, monospace" font-size="12">out += w_i</text>
    <text x="20" y="88" fill="#d1fae5" font-family="JetBrains Mono, Consolas, monospace" font-size="12">     * expert_i</text>
  </g>

  <g stroke="#8bd3ff" stroke-width="2.2" fill="none" marker-end="url(#arrow)">
    <path d="M205 198H250"/>
    <path d="M455 198H505"/>
    <path d="M725 198C750 198 750 130 782 130"/>
    <path d="M725 198C750 198 750 245 782 245"/>
    <path d="M952 130C980 130 980 190 1000 190"/>
    <path d="M952 245C980 245 980 235 1000 235"/>
  </g>

  <g transform="translate(80 438)">
    <rect x="0" y="0" width="1020" height="105" rx="12" fill="#08111f" stroke="#24344f"/>
    <text x="26" y="32" fill="#e5f2ff" font-family="Inter, Arial, sans-serif" font-size="17" font-weight="700">Why this matters for CK</text>
    <text x="26" y="60" fill="#9fb6d8" font-family="Inter, Arial, sans-serif" font-size="14">The router is control-heavy: top-k selection, group filtering, normalization, and sparse expert dispatch. CPUs handle this branching and irregular memory pattern naturally.</text>
    <text x="26" y="84" fill="#9fb6d8" font-family="Inter, Arial, sans-serif" font-size="14">The selected experts are dense kernels: CK keeps those as explicit C entry points, so each slow piece can be profiled and replaced independently.</text>
  </g>

  <text x="590" y="585" fill="#49617f" font-family="JetBrains Mono, Consolas, monospace" font-size="12" text-anchor="middle">C-Kernel-Engine | group-limited router + ReLU2 expert dispatch</text>
</svg>
