<svg xmlns="http://www.w3.org/2000/svg" viewBox="0 0 1600 900" role="img" aria-labelledby="title desc">
  <title id="title">C-Kernel-Engine contributor ladder</title>
  <desc id="desc">Five contribution levels progress from documentation and Linux compatibility through profiling, numerical tests, kernels, and compiler or distributed systems work.</desc>
  <defs>
    <linearGradient id="bg" x1="0" y1="0" x2="1" y2="1">
      <stop offset="0" stop-color="#171d22"/>
      <stop offset="1" stop-color="#252d33"/>
    </linearGradient>
    <linearGradient id="path" x1="0" y1="0" x2="1" y2="0">
      <stop offset="0" stop-color="#47b475"/>
      <stop offset="0.52" stop-color="#07adf8"/>
      <stop offset="1" stop-color="#ffb400"/>
    </linearGradient>
    <filter id="shadow" x="-20%" y="-20%" width="140%" height="140%">
      <feDropShadow dx="0" dy="12" stdDeviation="14" flood-color="#000" flood-opacity=".28"/>
    </filter>
    <pattern id="grid" width="40" height="40" patternUnits="userSpaceOnUse">
      <path d="M40 0H0V40" fill="none" stroke="#fff" stroke-opacity=".035"/>
    </pattern>
  </defs>
  <rect width="1600" height="900" rx="28" fill="url(#bg)"/>
  <rect width="1600" height="900" rx="28" fill="url(#grid)"/>

  <text x="90" y="100" fill="#ffb400" font-family="monospace" font-size="22" font-weight="700" letter-spacing="4">CONTRIBUTOR PATH</text>
  <text x="90" y="163" fill="#fff" font-family="sans-serif" font-size="48" font-weight="800">Start where you can produce evidence.</text>
  <text x="90" y="208" fill="#aeb9c0" font-family="sans-serif" font-size="25">You do not need to understand the entire engine before improving one boundary.</text>

  <path d="M132 713 C330 713 320 611 488 611 S650 509 808 509 S970 407 1128 407 S1260 305 1452 305" fill="none" stroke="url(#path)" stroke-width="10" stroke-linecap="round" opacity=".8"/>

  <g filter="url(#shadow)" font-family="sans-serif">
    <g transform="translate(85 590)">
      <rect width="270" height="205" rx="18" fill="#24372f" stroke="#47b475" stroke-width="3"/>
      <text x="24" y="42" fill="#47b475" font-family="monospace" font-size="20" font-weight="700">LEVEL 1</text>
      <text x="24" y="82" fill="#fff" font-size="27" font-weight="750">Make it work</text>
      <text x="24" y="118" fill="#c6d0cc" font-size="19">Docs, builds, Linux</text>
      <text x="24" y="147" fill="#c6d0cc" font-size="19">distribution support</text>
      <text x="24" y="184" fill="#8fa59a" font-size="16">One reproducible fix</text>
    </g>

    <g transform="translate(385 488)">
      <rect width="270" height="205" rx="18" fill="#20343b" stroke="#20a9ce" stroke-width="3"/>
      <text x="24" y="42" fill="#38b9df" font-family="monospace" font-size="20" font-weight="700">LEVEL 2</text>
      <text x="24" y="82" fill="#fff" font-size="27" font-weight="750">Measure it</text>
      <text x="24" y="118" fill="#c5d2d7" font-size="19">Benchmarks, perf,</text>
      <text x="24" y="147" fill="#c5d2d7" font-size="19">flamegraphs, profilers</text>
      <text x="24" y="184" fill="#8da7b0" font-size="16">Artifact plus commands</text>
    </g>

    <g transform="translate(685 386)">
      <rect width="270" height="205" rx="18" fill="#1e3541" stroke="#07adf8" stroke-width="3"/>
      <text x="24" y="42" fill="#07adf8" font-family="monospace" font-size="20" font-weight="700">LEVEL 3</text>
      <text x="24" y="82" fill="#fff" font-size="27" font-weight="750">Prove it</text>
      <text x="24" y="118" fill="#c5d2d7" font-size="19">Reference tests and</text>
      <text x="24" y="147" fill="#c5d2d7" font-size="19">numerical fixtures</text>
      <text x="24" y="184" fill="#8da7b0" font-size="16">Independent oracle</text>
    </g>

    <g transform="translate(985 284)">
      <rect width="270" height="205" rx="18" fill="#3a3421" stroke="#e7a817" stroke-width="3"/>
      <text x="24" y="42" fill="#ffbf2f" font-family="monospace" font-size="20" font-weight="700">LEVEL 4</text>
      <text x="24" y="82" fill="#fff" font-size="27" font-weight="750">Optimize it</text>
      <text x="24" y="118" fill="#d7d0bc" font-size="19">Kernel code, SIMD,</text>
      <text x="24" y="147" fill="#d7d0bc" font-size="19">memory and threading</text>
      <text x="24" y="184" fill="#afa686" font-size="16">Parity before speed</text>
    </g>

    <g transform="translate(1285 182)">
      <rect width="230" height="205" rx="18" fill="#3b2e1a" stroke="#ffb400" stroke-width="3"/>
      <text x="22" y="42" fill="#ffb400" font-family="monospace" font-size="20" font-weight="700">LEVEL 5</text>
      <text x="22" y="82" fill="#fff" font-size="27" font-weight="750">Connect it</text>
      <text x="22" y="118" fill="#ddd2bc" font-size="18">Compiler, DSL,</text>
      <text x="22" y="146" fill="#ddd2bc" font-size="18">multimodal, cluster</text>
      <text x="22" y="184" fill="#b3a285" font-size="16">Cross-layer contracts</text>
    </g>
  </g>

  <g transform="translate(90 832)" font-family="sans-serif">
    <circle cx="10" cy="-7" r="8" fill="#47b475"/>
    <text x="30" y="0" fill="#b7c1c7" font-size="19">Small contributions are complete contributions.</text>
    <circle cx="485" cy="-7" r="8" fill="#07adf8"/>
    <text x="505" y="0" fill="#b7c1c7" font-size="19">Open a draft PR before the work grows.</text>
    <circle cx="1010" cy="-7" r="8" fill="#ffb400"/>
    <text x="1030" y="0" fill="#b7c1c7" font-size="19">Every claim needs evidence.</text>
  </g>
</svg>
