<svg xmlns="http://www.w3.org/2000/svg" width="1280" height="640" viewBox="0 0 1280 640" role="img" aria-labelledby="title desc">
  <title id="title">C-Kernel-Engine repository social preview</title>
  <desc id="desc">C-Kernel-Engine turns model circuits and numerical contracts into generated C and CPU kernels.</desc>
  <defs>
    <linearGradient id="bg" x1="0" y1="0" x2="1" y2="1"><stop stop-color="#08100f"/><stop offset=".52" stop-color="#101a18"/><stop offset="1" stop-color="#092335"/></linearGradient>
    <pattern id="grid" width="40" height="40" patternUnits="userSpaceOnUse"><path d="M40 0H0V40" fill="none" stroke="#9fb9b2" stroke-opacity=".08"/></pattern>
    <linearGradient id="flow" x1="0" y1="0" x2="1" y2="0"><stop stop-color="#47b475"/><stop offset="1" stop-color="#07adf8"/></linearGradient>
  </defs>
  <rect width="1280" height="640" fill="url(#bg)"/><rect width="1280" height="640" fill="url(#grid)"/>
  <circle cx="1130" cy="100" r="250" fill="#07adf8" opacity=".07"/><circle cx="75" cy="610" r="270" fill="#47b475" opacity=".08"/>
  <g transform="translate(82 72)">
    <rect width="82" height="82" rx="14" fill="#ffb400"/><text x="41" y="55" text-anchor="middle" font-family="DejaVu Sans, sans-serif" font-size="38" font-weight="800" fill="#101614">CK</text>
    <text x="108" y="35" font-family="DejaVu Sans, sans-serif" font-size="24" font-weight="700" fill="#ffb400" letter-spacing="3">C-KERNEL-ENGINE</text>
    <text x="108" y="69" font-family="DejaVu Sans, sans-serif" font-size="18" fill="#9fb9b2">CPU-native AI · Linux · generated C</text>
  </g>
  <text x="82" y="250" font-family="DejaVu Sans, sans-serif" font-size="54" font-weight="800" fill="#f4f7f6">Make model execution</text>
  <text x="82" y="310" font-family="DejaVu Sans, sans-serif" font-size="54" font-weight="800" fill="#f4f7f6">explicit and inspectable.</text>
  <g transform="translate(82 382)" font-family="DejaVu Sans, sans-serif">
    <g><rect width="218" height="82" rx="10" fill="#172522" stroke="#47b475" stroke-opacity=".6"/><text x="109" y="37" text-anchor="middle" font-size="17" font-weight="700" fill="#47b475">MODEL CIRCUIT</text><text x="109" y="61" text-anchor="middle" font-size="14" fill="#9fb9b2">dimensions · weights · ops</text></g>
    <path d="M232 41h50" stroke="url(#flow)" stroke-width="4"/><path d="m277 33 12 8-12 8" fill="none" stroke="#5bc3a0" stroke-width="4"/>
    <g transform="translate(294)"><rect width="238" height="82" rx="10" fill="#172522" stroke="#ffb400" stroke-opacity=".65"/><text x="119" y="37" text-anchor="middle" font-size="17" font-weight="700" fill="#ffb400">NUMERICAL CONTRACT</text><text x="119" y="61" text-anchor="middle" font-size="14" fill="#9fb9b2">dtype · reduction · parity</text></g>
    <path d="M546 41h50" stroke="url(#flow)" stroke-width="4"/><path d="m591 33 12 8-12 8" fill="none" stroke="#32b6c3" stroke-width="4"/>
    <g transform="translate(608)"><rect width="190" height="82" rx="10" fill="#172522" stroke="#07adf8" stroke-opacity=".65"/><text x="95" y="37" text-anchor="middle" font-size="17" font-weight="700" fill="#07adf8">GENERATED C</text><text x="95" y="61" text-anchor="middle" font-size="14" fill="#9fb9b2">standalone runtime</text></g>
    <path d="M812 41h50" stroke="url(#flow)" stroke-width="4"/><path d="m857 33 12 8-12 8" fill="none" stroke="#07adf8" stroke-width="4"/>
    <g transform="translate(874)"><rect width="218" height="82" rx="10" fill="#172522" stroke="#07adf8" stroke-opacity=".65"/><text x="109" y="37" text-anchor="middle" font-size="17" font-weight="700" fill="#07adf8">CPU KERNELS</text><text x="109" y="61" text-anchor="middle" font-size="14" fill="#9fb9b2">AVX2 · AVX-512 · AMX</text></g>
  </g>
  <line x1="82" y1="525" x2="1174" y2="525" stroke="#9fb9b2" stroke-opacity=".18"/>
  <text x="82" y="570" font-family="DejaVu Sans, sans-serif" font-size="20" font-weight="700" fill="#47b475">Correctness before optimization.</text>
  <text x="1174" y="570" text-anchor="end" font-family="DejaVu Sans, sans-serif" font-size="17" fill="#9fb9b2">github.com/C-Kernel-Engine</text>
</svg>
